<?xml version="1.0" encoding="UTF-8"?><svg id="a" xmlns="http://www.w3.org/2000/svg" viewBox="0 0 83.871 83.872"><path d="M16.21,43.27c-.734-.734-.734-1.935,0-2.67L49.778,7.033l-6.483-6.483c-.734-.734-1.936-.734-2.67,0L.574,40.601c-.734.735-.734,1.936,0,2.67l40.05,40.05c.734.735,1.936.735,2.67,0l6.483-6.483L16.21,43.27Z" style="fill:#6592b1;"/><path d="M46.684,43.27c-.734-.734-.734-1.935,0-2.67l18.234-18.235-6.483-6.483c-.734-.734-1.936-.734-2.67,0l-24.718,24.718c-.734.735-.734,1.936,0,2.67l24.814,24.814c.734.735,1.936.735,2.67,0l6.483-6.483-18.33-18.33Z" style="fill:#6592b1;"/><rect x="64.055" y="33.338" width="17.196" height="17.196" rx="2.036" ry="2.036" transform="translate(-8.373 63.656) rotate(-45)" style="fill:#6592b1;"/></svg>